<svg width="92" height="25" viewBox="0 0 92 25" fill="none" xmlns="http://www.w3.org/2000/svg">
    <path d="M0 3C0 1.58579 0 0.87868 0.43934 0.43934C0.87868 0 1.58579 0 3 0H86.5628C88.8676 0 90.02 0 90.4533 0.748726C90.8865 1.49745 90.3123 2.4966 89.1638 4.4949L78.6623 22.7666C78.2402 23.5011 78.0291 23.8683 77.6806 24.07C77.332 24.2717 76.9085 24.2717 76.0613 24.2717H3C1.58579 24.2717 0.87868 24.2717 0.43934 23.8324C0 23.3931 0 22.686 0 21.2717V3Z" fill="#8575E7"/>
    <path d="M33.6953 17.115C33.0279 17.115 32.4213 16.9634 31.8753 16.66C31.3379 16.3567 30.9133 15.9277 30.6013 15.373C30.2979 14.8097 30.1463 14.1597 30.1463 13.423C30.1463 12.695 30.3023 12.0537 30.6143 11.499C30.9349 10.9357 31.3683 10.5067 31.9143 10.212C32.4603 9.90871 33.0713 9.75705 33.7473 9.75705C34.4233 9.75705 35.0343 9.90871 35.5803 10.212C36.1263 10.5067 36.5553 10.9314 36.8673 11.486C37.1879 12.0407 37.3483 12.6864 37.3483 13.423C37.3483 14.1597 37.1836 14.8097 36.8543 15.373C36.5336 15.9277 36.0959 16.3567 35.5413 16.66C34.9866 16.9634 34.3713 17.115 33.6953 17.115ZM33.6953 16.075C34.1199 16.075 34.5186 15.9754 34.8913 15.776C35.2639 15.5767 35.5629 15.2777 35.7883 14.879C36.0223 14.4804 36.1393 13.995 36.1393 13.423C36.1393 12.851 36.0266 12.3657 35.8013 11.967C35.5759 11.5684 35.2813 11.2737 34.9173 11.083C34.5533 10.8837 34.1589 10.784 33.7343 10.784C33.3009 10.784 32.9023 10.8837 32.5383 11.083C32.1829 11.2737 31.8969 11.5684 31.6803 11.967C31.4636 12.3657 31.3553 12.851 31.3553 13.423C31.3553 14.0037 31.4593 14.4934 31.6673 14.892C31.8839 15.2907 32.1699 15.5897 32.5253 15.789C32.8806 15.9797 33.2706 16.075 33.6953 16.075ZM42.8557 15.906L45.0657 9.87405H46.3267L43.5317 16.998H42.1537L39.3587 9.87405H40.6327L42.8557 15.906ZM55.2908 13.163C55.2908 13.3884 55.2778 13.6267 55.2518 13.878H49.5578C49.6012 14.58 49.8395 15.1304 50.2728 15.529C50.7148 15.919 51.2478 16.114 51.8718 16.114C52.3832 16.114 52.8078 15.997 53.1458 15.763C53.4925 15.5204 53.7352 15.1997 53.8738 14.801H55.1478C54.9572 15.4857 54.5758 16.0447 54.0038 16.478C53.4318 16.9027 52.7212 17.115 51.8718 17.115C51.1958 17.115 50.5892 16.9634 50.0518 16.66C49.5232 16.3567 49.1072 15.9277 48.8038 15.373C48.5005 14.8097 48.3488 14.1597 48.3488 13.423C48.3488 12.6864 48.4962 12.0407 48.7908 11.486C49.0855 10.9314 49.4972 10.5067 50.0258 10.212C50.5632 9.90871 51.1785 9.75705 51.8718 9.75705C52.5478 9.75705 53.1458 9.90438 53.6658 10.199C54.1858 10.4937 54.5845 10.901 54.8618 11.421C55.1478 11.9324 55.2908 12.513 55.2908 13.163ZM54.0688 12.916C54.0688 12.4654 53.9692 12.0797 53.7698 11.759C53.5705 11.4297 53.2975 11.1827 52.9508 11.018C52.6128 10.8447 52.2358 10.758 51.8198 10.758C51.2218 10.758 50.7105 10.9487 50.2858 11.33C49.8698 11.7114 49.6315 12.24 49.5708 12.916H54.0688ZM59.3353 11.031C59.5433 10.6237 59.838 10.3074 60.2193 10.082C60.6093 9.85671 61.0817 9.74405 61.6363 9.74405V10.966H61.3243C59.9983 10.966 59.3353 11.6854 59.3353 13.124V16.998H58.1523V9.87405H59.3353V11.031Z" fill="white"/>
</svg>
